<svg width="327" height="34" viewBox="0 0 327 34" fill="none" xmlns="http://www.w3.org/2000/svg">
<path d="M44.6381 26V8.54545H51.6268C52.9109 8.54545 53.9819 8.7358 54.8398 9.11648C55.6978 9.49716 56.3427 10.0256 56.7745 10.7017C57.2063 11.3722 57.4222 12.1449 57.4222 13.0199C57.4222 13.7017 57.2859 14.3011 57.0131 14.8182C56.7404 15.3295 56.3654 15.75 55.8881 16.0795C55.4165 16.4034 54.8768 16.6335 54.2688 16.7699V16.9403C54.9336 16.9687 55.5558 17.1562 56.1353 17.5028C56.7205 17.8494 57.195 18.3352 57.5586 18.9602C57.9222 19.5795 58.104 20.3182 58.104 21.1761C58.104 22.1023 57.8739 22.929 57.4137 23.6562C56.9592 24.3778 56.2859 24.9489 55.3938 25.3693C54.5018 25.7898 53.4023 26 52.0955 26H44.6381ZM48.3285 22.983H51.337C52.3654 22.983 53.1154 22.7869 53.587 22.3949C54.0586 21.9972 54.2944 21.4687 54.2944 20.8097C54.2944 20.3267 54.1779 19.9006 53.945 19.5312C53.712 19.1619 53.3796 18.8722 52.9478 18.6619C52.5217 18.4517 52.0131 18.3466 51.4222 18.3466H48.3285V22.983ZM48.3285 15.8494H51.0643C51.57 15.8494 52.0188 15.7614 52.4109 15.5852C52.8086 15.4034 53.1211 15.1477 53.3484 14.8182C53.5813 14.4886 53.6978 14.0938 53.6978 13.6335C53.6978 13.0028 53.4734 12.4943 53.0245 12.108C52.5813 11.7216 51.9506 11.5284 51.1325 11.5284H48.3285V15.8494ZM60.4371 26V12.9091H64.0678V26H60.4371ZM62.261 11.2216C61.7212 11.2216 61.2582 11.0426 60.8718 10.6847C60.4911 10.321 60.3008 9.88636 60.3008 9.38068C60.3008 8.88068 60.4911 8.4517 60.8718 8.09375C61.2582 7.73011 61.7212 7.54829 62.261 7.54829C62.8008 7.54829 63.261 7.73011 63.6417 8.09375C64.0281 8.4517 64.2212 8.88068 64.2212 9.38068C64.2212 9.88636 64.0281 10.321 63.6417 10.6847C63.261 11.0426 62.8008 11.2216 62.261 11.2216ZM70.6069 18.4318V26H66.9762V12.9091H70.4364V15.2188H70.5898C70.8796 14.4574 71.3654 13.8551 72.0472 13.4119C72.729 12.9631 73.5558 12.7386 74.5273 12.7386C75.4364 12.7386 76.229 12.9375 76.9052 13.3352C77.5813 13.733 78.1069 14.3011 78.4819 15.0398C78.8569 15.7727 79.0444 16.6477 79.0444 17.6648V26H75.4137V18.3125C75.4194 17.5114 75.2148 16.8864 74.8001 16.4375C74.3853 15.983 73.8143 15.7557 73.087 15.7557C72.5984 15.7557 72.1665 15.8608 71.7915 16.071C71.4222 16.2812 71.1325 16.5881 70.9222 16.9915C70.7177 17.3892 70.6126 17.8693 70.6069 18.4318ZM102.929 14.6562H99.1964C99.1282 14.1733 98.989 13.7443 98.7788 13.3693C98.5685 12.9886 98.2987 12.6648 97.9691 12.3977C97.6396 12.1307 97.2589 11.9261 96.8271 11.7841C96.4009 11.642 95.9379 11.571 95.4379 11.571C94.5344 11.571 93.7475 11.7955 93.0771 12.2443C92.4066 12.6875 91.8867 13.3352 91.5174 14.1875C91.1481 15.0341 90.9634 16.0625 90.9634 17.2727C90.9634 18.517 91.1481 19.5625 91.5174 20.4091C91.8924 21.2557 92.4151 21.8949 93.0856 22.3267C93.756 22.7585 94.5316 22.9744 95.4123 22.9744C95.9066 22.9744 96.364 22.9091 96.7844 22.7784C97.2106 22.6477 97.5884 22.4574 97.918 22.2074C98.2475 21.9517 98.5202 21.642 98.7362 21.2784C98.9577 20.9148 99.1112 20.5 99.1964 20.0341L102.929 20.0511C102.833 20.8523 102.591 21.625 102.205 22.3693C101.824 23.108 101.31 23.7699 100.662 24.3551C100.02 24.9347 99.2532 25.3949 98.3612 25.7358C97.4748 26.071 96.4719 26.2386 95.3526 26.2386C93.7958 26.2386 92.4038 25.8864 91.1765 25.1818C89.9549 24.4773 88.989 23.4574 88.2788 22.1222C87.5742 20.7869 87.2219 19.1705 87.2219 17.2727C87.2219 15.3693 87.5799 13.75 88.2958 12.4148C89.0117 11.0795 89.9833 10.0625 91.2106 9.36364C92.4379 8.65909 93.8185 8.30682 95.3526 8.30682C96.364 8.30682 97.3015 8.44886 98.1651 8.73295C99.0344 9.01705 99.8043 9.43182 100.475 9.97727C101.145 10.517 101.691 11.179 102.111 11.9631C102.537 12.7472 102.81 13.6449 102.929 14.6562ZM109.138 8.54545V26H105.507V8.54545H109.138ZM118.012 26.2557C116.666 26.2557 115.507 25.983 114.535 25.4375C113.569 24.8864 112.825 24.108 112.302 23.1023C111.779 22.0909 111.518 20.8949 111.518 19.5142C111.518 18.1676 111.779 16.9858 112.302 15.9688C112.825 14.9517 113.561 14.1591 114.51 13.5909C115.464 13.0227 116.583 12.7386 117.868 12.7386C118.731 12.7386 119.535 12.8778 120.279 13.1562C121.029 13.429 121.683 13.8409 122.24 14.392C122.802 14.9432 123.24 15.6364 123.552 16.4716C123.865 17.3011 124.021 18.2727 124.021 19.3864V20.3835H112.967V18.1335H120.603C120.603 17.6108 120.49 17.1477 120.262 16.7443C120.035 16.3409 119.72 16.0256 119.316 15.7983C118.919 15.5653 118.456 15.4489 117.927 15.4489C117.376 15.4489 116.887 15.5767 116.461 15.8324C116.041 16.0824 115.711 16.4205 115.473 16.8466C115.234 17.267 115.112 17.7358 115.106 18.2528V20.392C115.106 21.0398 115.225 21.5994 115.464 22.071C115.708 22.5426 116.052 22.9062 116.495 23.1619C116.939 23.4176 117.464 23.5455 118.072 23.5455C118.475 23.5455 118.845 23.4886 119.18 23.375C119.515 23.2614 119.802 23.0909 120.041 22.8636C120.279 22.6364 120.461 22.358 120.586 22.0284L123.944 22.25C123.774 23.0568 123.424 23.7614 122.896 24.3636C122.373 24.9602 121.697 25.4261 120.868 25.7614C120.044 26.0909 119.092 26.2557 118.012 26.2557ZM130.123 26.2472C129.288 26.2472 128.544 26.1023 127.89 25.8125C127.237 25.517 126.72 25.0824 126.339 24.5085C125.964 23.929 125.777 23.2074 125.777 22.3438C125.777 21.6165 125.91 21.0057 126.177 20.5114C126.444 20.017 126.808 19.6193 127.268 19.3182C127.728 19.017 128.251 18.7898 128.836 18.6364C129.427 18.483 130.047 18.375 130.694 18.3125C131.456 18.233 132.069 18.1591 132.535 18.0909C133.001 18.017 133.339 17.9091 133.549 17.767C133.76 17.625 133.865 17.4148 133.865 17.1364V17.0852C133.865 16.5455 133.694 16.1278 133.353 15.8324C133.018 15.5369 132.541 15.3892 131.922 15.3892C131.268 15.3892 130.748 15.5341 130.362 15.8239C129.975 16.108 129.72 16.4659 129.595 16.8977L126.237 16.625C126.407 15.8295 126.743 15.142 127.243 14.5625C127.743 13.9773 128.387 13.5284 129.177 13.2159C129.973 12.8977 130.893 12.7386 131.939 12.7386C132.666 12.7386 133.362 12.8239 134.027 12.9943C134.697 13.1648 135.291 13.429 135.808 13.7869C136.331 14.1449 136.743 14.6051 137.044 15.1676C137.345 15.7244 137.495 16.392 137.495 17.1705V26H134.052V24.1847H133.95C133.74 24.5938 133.458 24.9545 133.106 25.267C132.754 25.5739 132.331 25.8153 131.836 25.9915C131.342 26.1619 130.771 26.2472 130.123 26.2472ZM131.163 23.7415C131.697 23.7415 132.169 23.6364 132.578 23.4261C132.987 23.2102 133.308 22.9205 133.541 22.5568C133.774 22.1932 133.89 21.7812 133.89 21.321V19.9318C133.777 20.0057 133.62 20.0739 133.422 20.1364C133.228 20.1932 133.01 20.2472 132.765 20.2983C132.521 20.3437 132.277 20.3864 132.032 20.4261C131.788 20.4602 131.566 20.4915 131.368 20.5199C130.941 20.5824 130.569 20.6818 130.251 20.8182C129.933 20.9545 129.686 21.1392 129.51 21.3722C129.333 21.5994 129.245 21.8835 129.245 22.2244C129.245 22.7188 129.424 23.0966 129.782 23.358C130.146 23.6136 130.606 23.7415 131.163 23.7415ZM143.943 18.4318V26H140.312V12.9091H143.772V15.2188H143.926C144.216 14.4574 144.701 13.8551 145.383 13.4119C146.065 12.9631 146.892 12.7386 147.863 12.7386C148.772 12.7386 149.565 12.9375 150.241 13.3352C150.917 13.733 151.443 14.3011 151.818 15.0398C152.193 15.7727 152.38 16.6477 152.38 17.6648V26H148.75V18.3125C148.755 17.5114 148.551 16.8864 148.136 16.4375C147.721 15.983 147.15 15.7557 146.423 15.7557C145.934 15.7557 145.502 15.8608 145.127 16.071C144.758 16.2812 144.468 16.5881 144.258 16.9915C144.054 17.3892 143.949 17.8693 143.943 18.4318ZM155.242 26V12.9091H158.873V26H155.242ZM157.066 11.2216C156.526 11.2216 156.063 11.0426 155.676 10.6847C155.296 10.321 155.105 9.88636 155.105 9.38068C155.105 8.88068 155.296 8.4517 155.676 8.09375C156.063 7.73011 156.526 7.54829 157.066 7.54829C157.605 7.54829 158.066 7.73011 158.446 8.09375C158.833 8.4517 159.026 8.88068 159.026 9.38068C159.026 9.88636 158.833 10.321 158.446 10.6847C158.066 11.0426 157.605 11.2216 157.066 11.2216ZM165.412 18.4318V26H161.781V12.9091H165.241V15.2188H165.395C165.684 14.4574 166.17 13.8551 166.852 13.4119C167.534 12.9631 168.36 12.7386 169.332 12.7386C170.241 12.7386 171.034 12.9375 171.71 13.3352C172.386 13.733 172.912 14.3011 173.287 15.0398C173.662 15.7727 173.849 16.6477 173.849 17.6648V26H170.218V18.3125C170.224 17.5114 170.02 16.8864 169.605 16.4375C169.19 15.983 168.619 15.7557 167.892 15.7557C167.403 15.7557 166.971 15.8608 166.596 16.071C166.227 16.2812 165.937 16.5881 165.727 16.9915C165.522 17.3892 165.417 17.8693 165.412 18.4318ZM182.608 31.1818C181.432 31.1818 180.424 31.0199 179.583 30.696C178.748 30.3778 178.083 29.9432 177.588 29.392C177.094 28.8409 176.773 28.2216 176.625 27.5341L179.983 27.0824C180.086 27.3438 180.248 27.5881 180.469 27.8153C180.691 28.0426 180.983 28.2244 181.347 28.3608C181.716 28.5028 182.165 28.5739 182.694 28.5739C183.483 28.5739 184.134 28.3807 184.645 27.9943C185.162 27.6136 185.421 26.9744 185.421 26.0767V23.6818H185.267C185.108 24.0455 184.87 24.3892 184.551 24.7131C184.233 25.0369 183.824 25.3011 183.324 25.5057C182.824 25.7102 182.228 25.8125 181.534 25.8125C180.551 25.8125 179.657 25.5852 178.85 25.1307C178.049 24.6705 177.409 23.9687 176.932 23.0256C176.461 22.0767 176.225 20.8778 176.225 19.429C176.225 17.946 176.466 16.7074 176.949 15.7131C177.432 14.7187 178.074 13.9744 178.875 13.4801C179.682 12.9858 180.566 12.7386 181.526 12.7386C182.259 12.7386 182.873 12.8636 183.367 13.1136C183.861 13.358 184.259 13.6648 184.56 14.0341C184.867 14.3977 185.103 14.7557 185.267 15.108H185.404V12.9091H189.009V26.1278C189.009 27.2415 188.736 28.1733 188.191 28.9233C187.645 29.6733 186.89 30.2358 185.924 30.6108C184.963 30.9915 183.858 31.1818 182.608 31.1818ZM182.685 23.0852C183.27 23.0852 183.765 22.9403 184.168 22.6506C184.577 22.3551 184.89 21.9347 185.105 21.3892C185.327 20.8381 185.438 20.179 185.438 19.4119C185.438 18.6449 185.33 17.9801 185.114 17.4176C184.898 16.8494 184.586 16.4091 184.176 16.0966C183.767 15.7841 183.27 15.6278 182.685 15.6278C182.088 15.6278 181.586 15.7898 181.176 16.1136C180.767 16.4318 180.458 16.875 180.248 17.4432C180.037 18.0114 179.932 18.6676 179.932 19.4119C179.932 20.1676 180.037 20.821 180.248 21.3722C180.463 21.9176 180.773 22.3409 181.176 22.642C181.586 22.9375 182.088 23.0852 182.685 23.0852ZM212.922 14.6562H209.189C209.12 14.1733 208.981 13.7443 208.771 13.3693C208.561 12.9886 208.291 12.6648 207.961 12.3977C207.632 12.1307 207.251 11.9261 206.819 11.7841C206.393 11.642 205.93 11.571 205.43 11.571C204.527 11.571 203.74 11.7955 203.069 12.2443C202.399 12.6875 201.879 13.3352 201.51 14.1875C201.14 15.0341 200.956 16.0625 200.956 17.2727C200.956 18.517 201.14 19.5625 201.51 20.4091C201.885 21.2557 202.407 21.8949 203.078 22.3267C203.748 22.7585 204.524 22.9744 205.404 22.9744C205.899 22.9744 206.356 22.9091 206.777 22.7784C207.203 22.6477 207.581 22.4574 207.91 22.2074C208.24 21.9517 208.512 21.642 208.728 21.2784C208.95 20.9148 209.103 20.5 209.189 20.0341L212.922 20.0511C212.825 20.8523 212.583 21.625 212.197 22.3693C211.816 23.108 211.302 23.7699 210.654 24.3551C210.012 24.9347 209.245 25.3949 208.353 25.7358C207.467 26.071 206.464 26.2386 205.345 26.2386C203.788 26.2386 202.396 25.8864 201.169 25.1818C199.947 24.4773 198.981 23.4574 198.271 22.1222C197.566 20.7869 197.214 19.1705 197.214 17.2727C197.214 15.3693 197.572 13.75 198.288 12.4148C199.004 11.0795 199.975 10.0625 201.203 9.36364C202.43 8.65909 203.811 8.30682 205.345 8.30682C206.356 8.30682 207.294 8.44886 208.157 8.73295C209.027 9.01705 209.797 9.43182 210.467 9.97727C211.137 10.517 211.683 11.179 212.103 11.9631C212.529 12.7472 212.802 13.6449 212.922 14.6562ZM219.13 8.54545V26H215.5V8.54545H219.13ZM225.772 26.2472C224.936 26.2472 224.192 26.1023 223.539 25.8125C222.885 25.517 222.368 25.0824 221.988 24.5085C221.613 23.929 221.425 23.2074 221.425 22.3438C221.425 21.6165 221.559 21.0057 221.826 20.5114C222.093 20.017 222.456 19.6193 222.917 19.3182C223.377 19.017 223.9 18.7898 224.485 18.6364C225.076 18.483 225.695 18.375 226.343 18.3125C227.104 18.233 227.718 18.1591 228.184 18.0909C228.65 18.017 228.988 17.9091 229.198 17.767C229.408 17.625 229.513 17.4148 229.513 17.1364V17.0852C229.513 16.5455 229.343 16.1278 229.002 15.8324C228.667 15.5369 228.189 15.3892 227.57 15.3892C226.917 15.3892 226.397 15.5341 226.01 15.8239C225.624 16.108 225.368 16.4659 225.243 16.8977L221.885 16.625C222.056 15.8295 222.391 15.142 222.891 14.5625C223.391 13.9773 224.036 13.5284 224.826 13.2159C225.621 12.8977 226.542 12.7386 227.587 12.7386C228.314 12.7386 229.01 12.8239 229.675 12.9943C230.346 13.1648 230.939 13.429 231.456 13.7869C231.979 14.1449 232.391 14.6051 232.692 15.1676C232.993 15.7244 233.144 16.392 233.144 17.1705V26H229.701V24.1847H229.598C229.388 24.5938 229.107 24.9545 228.755 25.267C228.402 25.5739 227.979 25.8153 227.485 25.9915C226.99 26.1619 226.419 26.2472 225.772 26.2472ZM226.811 23.7415C227.346 23.7415 227.817 23.6364 228.226 23.4261C228.635 23.2102 228.956 22.9205 229.189 22.5568C229.422 22.1932 229.539 21.7812 229.539 21.321V19.9318C229.425 20.0057 229.269 20.0739 229.07 20.1364C228.877 20.1932 228.658 20.2472 228.414 20.2983C228.169 20.3437 227.925 20.3864 227.681 20.4261C227.436 20.4602 227.215 20.4915 227.016 20.5199C226.59 20.5824 226.218 20.6818 225.9 20.8182C225.581 20.9545 225.334 21.1392 225.158 21.3722C224.982 21.5994 224.894 21.8835 224.894 22.2244C224.894 22.7188 225.073 23.0966 225.431 23.358C225.794 23.6136 226.255 23.7415 226.811 23.7415ZM246.853 16.642L243.529 16.8466C243.472 16.5625 243.35 16.3068 243.162 16.0795C242.975 15.8466 242.728 15.6619 242.421 15.5256C242.12 15.3835 241.759 15.3125 241.338 15.3125C240.776 15.3125 240.301 15.4318 239.915 15.6705C239.529 15.9034 239.336 16.2159 239.336 16.608C239.336 16.9205 239.461 17.1847 239.711 17.4006C239.961 17.6165 240.39 17.7898 240.998 17.9205L243.367 18.3977C244.64 18.6591 245.588 19.0795 246.213 19.6591C246.838 20.2386 247.151 21 247.151 21.9432C247.151 22.8011 246.898 23.554 246.392 24.2017C245.892 24.8494 245.205 25.3551 244.33 25.7188C243.461 26.0767 242.458 26.2557 241.321 26.2557C239.588 26.2557 238.208 25.8949 237.179 25.1733C236.157 24.446 235.557 23.4574 235.381 22.2074L238.952 22.0199C239.06 22.5483 239.321 22.9517 239.736 23.2301C240.151 23.5028 240.682 23.6392 241.33 23.6392C241.966 23.6392 242.478 23.517 242.864 23.2727C243.256 23.0227 243.455 22.7017 243.461 22.3097C243.455 21.9801 243.316 21.7102 243.043 21.5C242.77 21.2841 242.35 21.1193 241.782 21.0057L239.515 20.554C238.236 20.2983 237.284 19.8551 236.659 19.2244C236.04 18.5937 235.73 17.7898 235.73 16.8125C235.73 15.9716 235.958 15.2472 236.412 14.6392C236.873 14.0312 237.517 13.5625 238.347 13.233C239.182 12.9034 240.159 12.7386 241.279 12.7386C242.932 12.7386 244.233 13.0881 245.182 13.7869C246.137 14.4858 246.694 15.4375 246.853 16.642ZM260.329 16.642L257.005 16.8466C256.949 16.5625 256.826 16.3068 256.639 16.0795C256.451 15.8466 256.204 15.6619 255.897 15.5256C255.596 15.3835 255.235 15.3125 254.815 15.3125C254.252 15.3125 253.778 15.4318 253.392 15.6705C253.005 15.9034 252.812 16.2159 252.812 16.608C252.812 16.9205 252.937 17.1847 253.187 17.4006C253.437 17.6165 253.866 17.7898 254.474 17.9205L256.843 18.3977C258.116 18.6591 259.065 19.0795 259.69 19.6591C260.315 20.2386 260.627 21 260.627 21.9432C260.627 22.8011 260.375 23.554 259.869 24.2017C259.369 24.8494 258.681 25.3551 257.806 25.7188C256.937 26.0767 255.934 26.2557 254.798 26.2557C253.065 26.2557 251.684 25.8949 250.656 25.1733C249.633 24.446 249.034 23.4574 248.858 22.2074L252.429 22.0199C252.537 22.5483 252.798 22.9517 253.213 23.2301C253.627 23.5028 254.159 23.6392 254.806 23.6392C255.443 23.6392 255.954 23.517 256.341 23.2727C256.733 23.0227 256.931 22.7017 256.937 22.3097C256.931 21.9801 256.792 21.7102 256.52 21.5C256.247 21.2841 255.826 21.1193 255.258 21.0057L252.991 20.554C251.713 20.2983 250.761 19.8551 250.136 19.2244C249.517 18.5937 249.207 17.7898 249.207 16.8125C249.207 15.9716 249.434 15.2472 249.889 14.6392C250.349 14.0312 250.994 13.5625 251.824 13.233C252.659 12.9034 253.636 12.7386 254.755 12.7386C256.409 12.7386 257.71 13.0881 258.659 13.7869C259.613 14.4858 260.17 15.4375 260.329 16.642ZM262.914 26V12.9091H266.544V26H262.914ZM264.738 11.2216C264.198 11.2216 263.735 11.0426 263.348 10.6847C262.968 10.321 262.777 9.88636 262.777 9.38068C262.777 8.88068 262.968 8.4517 263.348 8.09375C263.735 7.73011 264.198 7.54829 264.738 7.54829C265.277 7.54829 265.738 7.73011 266.118 8.09375C266.505 8.4517 266.698 8.88068 266.698 9.38068C266.698 9.88636 266.505 10.321 266.118 10.6847C265.738 11.0426 265.277 11.2216 264.738 11.2216ZM276.493 12.9091V15.6364H268.413V12.9091H276.493ZM270.262 26V11.9631C270.262 11.0142 270.447 10.2273 270.816 9.60227C271.191 8.97727 271.703 8.50852 272.35 8.19602C272.998 7.88352 273.734 7.72727 274.558 7.72727C275.115 7.72727 275.623 7.76989 276.083 7.85511C276.549 7.94034 276.896 8.01705 277.123 8.08523L276.475 10.8125C276.333 10.767 276.157 10.7244 275.947 10.6847C275.743 10.6449 275.532 10.625 275.316 10.625C274.782 10.625 274.41 10.75 274.2 11C273.99 11.2443 273.885 11.5881 273.885 12.0312V26H270.262ZM278.711 26V12.9091H282.341V26H278.711ZM280.534 11.2216C279.995 11.2216 279.532 11.0426 279.145 10.6847C278.765 10.321 278.574 9.88636 278.574 9.38068C278.574 8.88068 278.765 8.4517 279.145 8.09375C279.532 7.73011 279.995 7.54829 280.534 7.54829C281.074 7.54829 281.534 7.73011 281.915 8.09375C282.301 8.4517 282.495 8.88068 282.495 9.38068C282.495 9.88636 282.301 10.321 281.915 10.6847C281.534 11.0426 281.074 11.2216 280.534 11.2216ZM291.216 26.2557C289.869 26.2557 288.71 25.983 287.738 25.4375C286.772 24.8864 286.028 24.108 285.505 23.1023C284.983 22.0909 284.721 20.8949 284.721 19.5142C284.721 18.1676 284.983 16.9858 285.505 15.9688C286.028 14.9517 286.764 14.1591 287.713 13.5909C288.667 13.0227 289.787 12.7386 291.071 12.7386C291.934 12.7386 292.738 12.8778 293.483 13.1562C294.233 13.429 294.886 13.8409 295.443 14.392C296.005 14.9432 296.443 15.6364 296.755 16.4716C297.068 17.3011 297.224 18.2727 297.224 19.3864V20.3835H286.17V18.1335H293.806C293.806 17.6108 293.693 17.1477 293.466 16.7443C293.238 16.3409 292.923 16.0256 292.52 15.7983C292.122 15.5653 291.659 15.4489 291.13 15.4489C290.579 15.4489 290.091 15.5767 289.664 15.8324C289.244 16.0824 288.914 16.4205 288.676 16.8466C288.437 17.267 288.315 17.7358 288.309 18.2528V20.392C288.309 21.0398 288.429 21.5994 288.667 22.071C288.912 22.5426 289.255 22.9062 289.699 23.1619C290.142 23.4176 290.667 23.5455 291.275 23.5455C291.679 23.5455 292.048 23.4886 292.383 23.375C292.718 23.2614 293.005 23.0909 293.244 22.8636C293.483 22.6364 293.664 22.358 293.789 22.0284L297.147 22.25C296.977 23.0568 296.627 23.7614 296.099 24.3636C295.576 24.9602 294.9 25.4261 294.071 25.7614C293.247 26.0909 292.295 26.2557 291.216 26.2557ZM304.417 26.2131C303.423 26.2131 302.522 25.9574 301.716 25.446C300.914 24.929 300.278 24.1705 299.806 23.1705C299.341 22.1648 299.108 20.9318 299.108 19.4716C299.108 17.9716 299.349 16.7244 299.832 15.7301C300.315 14.7301 300.957 13.983 301.758 13.4886C302.565 12.9886 303.449 12.7386 304.409 12.7386C305.142 12.7386 305.752 12.8636 306.241 13.1136C306.735 13.358 307.133 13.6648 307.434 14.0341C307.741 14.3977 307.974 14.7557 308.133 15.108H308.244V8.54545H311.866V26H308.287V23.9034H308.133C307.963 24.267 307.721 24.6278 307.409 24.9858C307.102 25.3381 306.701 25.6307 306.207 25.8636C305.718 26.0966 305.122 26.2131 304.417 26.2131ZM305.568 23.3239C306.153 23.3239 306.647 23.1648 307.051 22.8466C307.46 22.5227 307.772 22.071 307.988 21.4915C308.21 20.9119 308.321 20.233 308.321 19.4545C308.321 18.6761 308.213 18 307.997 17.4261C307.781 16.8523 307.468 16.4091 307.059 16.0966C306.65 15.7841 306.153 15.6278 305.568 15.6278C304.971 15.6278 304.468 15.7898 304.059 16.1136C303.65 16.4375 303.341 16.8864 303.13 17.4602C302.92 18.0341 302.815 18.6989 302.815 19.4545C302.815 20.2159 302.92 20.8892 303.13 21.4744C303.346 22.054 303.656 22.5085 304.059 22.8381C304.468 23.1619 304.971 23.3239 305.568 23.3239ZM325.743 16.642L322.419 16.8466C322.363 16.5625 322.24 16.3068 322.053 16.0795C321.865 15.8466 321.618 15.6619 321.311 15.5256C321.01 15.3835 320.65 15.3125 320.229 15.3125C319.667 15.3125 319.192 15.4318 318.806 15.6705C318.419 15.9034 318.226 16.2159 318.226 16.608C318.226 16.9205 318.351 17.1847 318.601 17.4006C318.851 17.6165 319.28 17.7898 319.888 17.9205L322.257 18.3977C323.53 18.6591 324.479 19.0795 325.104 19.6591C325.729 20.2386 326.042 21 326.042 21.9432C326.042 22.8011 325.789 23.554 325.283 24.2017C324.783 24.8494 324.096 25.3551 323.221 25.7188C322.351 26.0767 321.348 26.2557 320.212 26.2557C318.479 26.2557 317.098 25.8949 316.07 25.1733C315.047 24.446 314.448 23.4574 314.272 22.2074L317.843 22.0199C317.951 22.5483 318.212 22.9517 318.627 23.2301C319.042 23.5028 319.573 23.6392 320.221 23.6392C320.857 23.6392 321.368 23.517 321.755 23.2727C322.147 23.0227 322.346 22.7017 322.351 22.3097C322.346 21.9801 322.206 21.7102 321.934 21.5C321.661 21.2841 321.24 21.1193 320.672 21.0057L318.405 20.554C317.127 20.2983 316.175 19.8551 315.55 19.2244C314.931 18.5937 314.621 17.7898 314.621 16.8125C314.621 15.9716 314.848 15.2472 315.303 14.6392C315.763 14.0312 316.408 13.5625 317.238 13.233C318.073 12.9034 319.05 12.7386 320.169 12.7386C321.823 12.7386 323.124 13.0881 324.073 13.7869C325.027 14.4858 325.584 15.4375 325.743 16.642Z" fill="#111827"/>
<path d="M15.7224 11.412C9.5733 12.1643 5.97382 11.7882 5.59869 9.71934C4.47379 0.880517 25.2833 2.19667 25.8457 7.27444C26.1871 10.3572 23.4088 10.4717 15.7224 11.412Z" fill="white"/>
<ellipse cx="17.0415" cy="17" rx="17.0415" ry="17" fill="url(#paint0_linear_169_8389)"/>
<path d="M16.7224 11.412C10.5733 12.1643 6.97382 11.7882 6.59869 9.71934C5.47379 0.880517 26.2833 2.19667 26.8457 7.27444C27.1871 10.3572 24.4088 10.4717 16.7224 11.412Z" fill="white"/>
<defs>
<linearGradient id="paint0_linear_169_8389" x1="4.99139" y1="4.9792" x2="29.033" y2="29.0794" gradientUnits="userSpaceOnUse">
<stop offset="0.55" stop-color="#16A34A"/>
<stop offset="0.745192" stop-color="#16A34A"/>
</linearGradient>
</defs>
</svg>
