<svg width="111" height="23" viewBox="0 0 111 23" fill="none" xmlns="http://www.w3.org/2000/svg">
<path d="M28.3959 16V5.09091H32.7638C33.5664 5.09091 34.2358 5.20987 34.772 5.4478C35.3082 5.68572 35.7112 6.01598 35.9811 6.43857C36.251 6.8576 36.386 7.34055 36.386 7.88743C36.386 8.31357 36.3007 8.68821 36.1303 9.01136C35.9598 9.33097 35.7255 9.59375 35.4272 9.79972C35.1324 10.0021 34.7951 10.146 34.4151 10.2312V10.3377C34.8306 10.3555 35.2194 10.4727 35.5816 10.6893C35.9474 10.9059 36.2439 11.2095 36.4712 11.6001C36.6985 11.9872 36.8121 12.4489 36.8121 12.9851C36.8121 13.5639 36.6683 14.0806 36.3806 14.5352C36.0965 14.9862 35.6757 15.343 35.1182 15.6058C34.5607 15.8686 33.8735 16 33.0568 16H28.3959ZM30.7024 14.1143H32.5827C33.2255 14.1143 33.6942 13.9918 33.9889 13.7468C34.2837 13.4982 34.4311 13.168 34.4311 12.756C34.4311 12.4542 34.3583 12.1879 34.2127 11.957C34.0671 11.7262 33.8593 11.5451 33.5894 11.4137C33.3231 11.2823 33.0053 11.2166 32.636 11.2166H30.7024V14.1143ZM30.7024 9.65589H32.4122C32.7283 9.65589 33.0088 9.60085 33.2539 9.49077C33.5024 9.37713 33.6978 9.21733 33.8398 9.01136C33.9854 8.8054 34.0582 8.55859 34.0582 8.27095C34.0582 7.87678 33.9179 7.55895 33.6374 7.31747C33.3604 7.07599 32.9662 6.95526 32.4549 6.95526H30.7024V9.65589ZM43.5171 12.5163V7.81818H45.7863V16H43.6076V14.5138H43.5224C43.3378 14.9933 43.0306 15.3786 42.6009 15.6697C42.1748 15.9609 41.6545 16.1065 41.0402 16.1065C40.4933 16.1065 40.0121 15.9822 39.5966 15.7337C39.1812 15.4851 38.8562 15.1317 38.6218 14.6737C38.391 14.2156 38.2738 13.6669 38.2703 13.0277V7.81818H40.5395V12.6229C40.543 13.1058 40.6726 13.4876 40.9283 13.7681C41.184 14.0487 41.5267 14.1889 41.9564 14.1889C42.2298 14.1889 42.4855 14.1268 42.7234 14.0025C42.9613 13.8746 43.1531 13.6864 43.2987 13.4379C43.4478 13.1893 43.5206 12.8821 43.5171 12.5163ZM47.644 16V5.09091H49.9131V9.19247H49.9824C50.0818 8.9723 50.2256 8.74858 50.4138 8.52131C50.6056 8.29048 50.8542 8.09872 51.1596 7.94602C51.4685 7.78977 51.8521 7.71165 52.3101 7.71165C52.9067 7.71165 53.4572 7.8679 53.9614 8.1804C54.4657 8.48935 54.8687 8.95632 55.1706 9.58132C55.4724 10.2028 55.6234 10.9822 55.6234 11.9197C55.6234 12.8324 55.476 13.603 55.1812 14.2315C54.89 14.8565 54.4923 15.3306 53.9881 15.6538C53.4873 15.9734 52.9263 16.1332 52.3048 16.1332C51.8645 16.1332 51.4898 16.0604 51.1809 15.9148C50.8755 15.7692 50.6251 15.5863 50.4298 15.3661C50.2345 15.1424 50.0854 14.9169 49.9824 14.6896H49.8812V16H47.644ZM49.8652 11.9091C49.8652 12.3956 49.9327 12.82 50.0676 13.1822C50.2025 13.5444 50.3979 13.8267 50.6535 14.0291C50.9092 14.228 51.2199 14.3274 51.5857 14.3274C51.955 14.3274 52.2675 14.2262 52.5232 14.0238C52.7789 13.8178 52.9724 13.5337 53.1038 13.1715C53.2388 12.8058 53.3062 12.3849 53.3062 11.9091C53.3062 11.4368 53.2405 11.0213 53.1092 10.6626C52.9778 10.304 52.7842 10.0234 52.5285 9.82102C52.2729 9.61861 51.9586 9.5174 51.5857 9.5174C51.2164 9.5174 50.9039 9.61506 50.6482 9.81037C50.3961 10.0057 50.2025 10.2827 50.0676 10.6413C49.9327 11 49.8652 11.4226 49.8652 11.9091ZM57.1801 16V5.09091H59.4493V9.19247H59.5185C59.6179 8.9723 59.7618 8.74858 59.95 8.52131C60.1417 8.29048 60.3903 8.09872 60.6957 7.94602C61.0047 7.78977 61.3882 7.71165 61.8463 7.71165C62.4429 7.71165 62.9933 7.8679 63.4976 8.1804C64.0018 8.48935 64.4049 8.95632 64.7067 9.58132C65.0086 10.2028 65.1595 10.9822 65.1595 11.9197C65.1595 12.8324 65.0121 13.603 64.7174 14.2315C64.4262 14.8565 64.0285 15.3306 63.5242 15.6538C63.0235 15.9734 62.4624 16.1332 61.841 16.1332C61.4006 16.1332 61.026 16.0604 60.717 15.9148C60.4116 15.7692 60.1613 15.5863 59.966 15.3661C59.7706 15.1424 59.6215 14.9169 59.5185 14.6896H59.4173V16H57.1801ZM59.4013 11.9091C59.4013 12.3956 59.4688 12.82 59.6037 13.1822C59.7387 13.5444 59.934 13.8267 60.1897 14.0291C60.4454 14.228 60.7561 14.3274 61.1218 14.3274C61.4912 14.3274 61.8037 14.2262 62.0593 14.0238C62.315 13.8178 62.5086 13.5337 62.64 13.1715C62.7749 12.8058 62.8424 12.3849 62.8424 11.9091C62.8424 11.4368 62.7767 11.0213 62.6453 10.6626C62.5139 10.304 62.3204 10.0234 62.0647 9.82102C61.809 9.61861 61.4947 9.5174 61.1218 9.5174C60.7525 9.5174 60.44 9.61506 60.1843 9.81037C59.9322 10.0057 59.7387 10.2827 59.6037 10.6413C59.4688 11 59.4013 11.4226 59.4013 11.9091ZM68.9428 5.09091V16H66.6736V5.09091H68.9428ZM74.4892 16.1598C73.6476 16.1598 72.9232 15.9893 72.3159 15.6484C71.7122 15.304 71.247 14.8175 70.9203 14.1889C70.5936 13.5568 70.4303 12.8093 70.4303 11.9464C70.4303 11.1048 70.5936 10.3661 70.9203 9.73047C71.247 9.09482 71.7069 8.59943 72.2999 8.24432C72.8965 7.8892 73.5961 7.71165 74.3987 7.71165C74.9384 7.71165 75.4409 7.79865 75.9061 7.97266C76.3749 8.14311 76.7832 8.40057 77.1313 8.74503C77.4828 9.08949 77.7563 9.52273 77.9516 10.0447C78.1469 10.5632 78.2445 11.1705 78.2445 11.8665V12.4897H71.3358V11.0835H76.1085C76.1085 10.7567 76.0375 10.4673 75.8955 10.2152C75.7534 9.96307 75.5563 9.76598 75.3042 9.62393C75.0556 9.47834 74.7662 9.40554 74.4359 9.40554C74.0915 9.40554 73.7861 9.48544 73.5198 9.64524C73.257 9.80149 73.051 10.0128 72.9019 10.2791C72.7527 10.5419 72.6764 10.8349 72.6728 11.158V12.495C72.6728 12.8999 72.7474 13.2496 72.8965 13.5444C73.0492 13.8391 73.2641 14.0664 73.5411 14.2262C73.818 14.386 74.1465 14.4659 74.5265 14.4659C74.7786 14.4659 75.0095 14.4304 75.219 14.3594C75.4285 14.2884 75.6078 14.1818 75.757 14.0398C75.9061 13.8977 76.0198 13.7237 76.0979 13.5178L78.1966 13.6562C78.0901 14.1605 77.8717 14.6009 77.5414 14.9773C77.2147 15.3501 76.7921 15.6413 76.2737 15.8509C75.7587 16.0568 75.1639 16.1598 74.4892 16.1598ZM79.768 16V5.09091H82.0372V9.19247H82.1064C82.2058 8.9723 82.3497 8.74858 82.5379 8.52131C82.7296 8.29048 82.9782 8.09872 83.2836 7.94602C83.5926 7.78977 83.9761 7.71165 84.4342 7.71165C85.0308 7.71165 85.5812 7.8679 86.0854 8.1804C86.5897 8.48935 86.9928 8.95632 87.2946 9.58132C87.5965 10.2028 87.7474 10.9822 87.7474 11.9197C87.7474 12.8324 87.6 13.603 87.3053 14.2315C87.0141 14.8565 86.6163 15.3306 86.1121 15.6538C85.6114 15.9734 85.0503 16.1332 84.4288 16.1332C83.9885 16.1332 83.6139 16.0604 83.3049 15.9148C82.9995 15.7692 82.7492 15.5863 82.5538 15.3661C82.3585 15.1424 82.2094 14.9169 82.1064 14.6896H82.0052V16H79.768ZM81.9892 11.9091C81.9892 12.3956 82.0567 12.82 82.1916 13.1822C82.3266 13.5444 82.5219 13.8267 82.7776 14.0291C83.0332 14.228 83.344 14.3274 83.7097 14.3274C84.0791 14.3274 84.3916 14.2262 84.6472 14.0238C84.9029 13.8178 85.0965 13.5337 85.2278 13.1715C85.3628 12.8058 85.4303 12.3849 85.4303 11.9091C85.4303 11.4368 85.3646 11.0213 85.2332 10.6626C85.1018 10.304 84.9082 10.0234 84.6526 9.82102C84.3969 9.61861 84.0826 9.5174 83.7097 9.5174C83.3404 9.5174 83.0279 9.61506 82.7722 9.81037C82.5201 10.0057 82.3266 10.2827 82.1916 10.6413C82.0567 11 81.9892 11.4226 81.9892 11.9091ZM89.2615 16V7.81818H91.5307V16H89.2615ZM90.4014 6.76349C90.0641 6.76349 89.7746 6.65163 89.5332 6.42791C89.2952 6.20064 89.1763 5.92898 89.1763 5.61293C89.1763 5.30043 89.2952 5.03232 89.5332 4.80859C89.7746 4.58132 90.0641 4.46768 90.4014 4.46768C90.7388 4.46768 91.0264 4.58132 91.2643 4.80859C91.5058 5.03232 91.6266 5.30043 91.6266 5.61293C91.6266 5.92898 91.5058 6.20064 91.2643 6.42791C91.0264 6.65163 90.7388 6.76349 90.4014 6.76349ZM95.6176 11.2699V16H93.3484V7.81818H95.5111V9.26172H95.6069C95.788 8.78587 96.0917 8.40945 96.5178 8.13246C96.9439 7.85192 97.4606 7.71165 98.0679 7.71165C98.6361 7.71165 99.1314 7.83594 99.554 8.08452C99.9766 8.3331 100.305 8.68821 100.539 9.14986C100.774 9.60795 100.891 10.1548 100.891 10.7905V16H98.6218V11.1953C98.6254 10.6946 98.4976 10.304 98.2383 10.0234C97.9791 9.73935 97.6222 9.5973 97.1677 9.5973C96.8623 9.5973 96.5924 9.663 96.358 9.79439C96.1272 9.92578 95.9461 10.1175 95.8147 10.3697C95.6868 10.6183 95.6211 10.9183 95.6176 11.2699ZM102.637 16V14.647L106.643 9.68785V9.62926H102.775V7.81818H109.375V9.29368L105.614 14.1303V14.1889H109.514V16H102.637Z" fill="white"/>
<path d="M11.0693 0C17.183 0 22.1396 4.9442 22.1396 11.043C22.1396 17.1417 17.1829 22.0859 11.0693 22.0859C4.95593 22.0857 9.7132e-05 17.1415 0 11.043C0 4.94435 4.95587 0.000232393 11.0693 0ZM17.4385 4.72559C17.0732 1.42719 3.55542 0.571989 4.28613 6.31348C4.52982 7.65733 6.86802 7.90174 10.8623 7.41309C15.8549 6.80229 17.66 6.72776 17.4385 4.72559Z" fill="white"/>
</svg>
