<svg width="36" height="36" viewBox="0 0 36 36" fill="none" xmlns="http://www.w3.org/2000/svg">
<g clip-path="url(#clip0_168_4550)">
<mask id="mask0_168_4550" style="mask-type:luminance" maskUnits="userSpaceOnUse" x="0" y="0" width="36" height="36">
<rect width="36" height="36" fill="white"/>
</mask>
<g mask="url(#mask0_168_4550)">
<path fill-rule="evenodd" clip-rule="evenodd" d="M32.625 18H27V13.5C27 11.018 29.018 9 31.5 9H32.0625C32.9977 9 33.75 8.24766 33.75 7.3125V3.9375C33.75 3.00234 32.9977 2.25 32.0625 2.25H31.5C25.2844 2.25 20.25 7.28437 20.25 13.5V30.375C20.25 32.2383 21.7617 33.75 23.625 33.75H32.625C34.4883 33.75 36 32.2383 36 30.375V21.375C36 19.5117 34.4883 18 32.625 18ZM12.375 18H6.75V13.5C6.75 11.018 8.76797 9 11.25 9H11.8125C12.7477 9 13.5 8.24766 13.5 7.3125V3.9375C13.5 3.00234 12.7477 2.25 11.8125 2.25H11.25C5.03437 2.25 0 7.28437 0 13.5V30.375C0 32.2383 1.51172 33.75 3.375 33.75H12.375C14.2383 33.75 15.75 32.2383 15.75 30.375V21.375C15.75 19.5117 14.2383 18 12.375 18Z" fill="#16A34A"/>
</g>
</g>
<defs>
<clipPath id="clip0_168_4550">
<rect width="36" height="36" fill="white"/>
</clipPath>
</defs>
</svg>
