<svg width="67" height="63" viewBox="0 0 67 63" fill="none" xmlns="http://www.w3.org/2000/svg">
<g clip-path="url(#clip0_168_4837)">
<path d="M19.6289 37.5196C19.6289 37.956 19.2745 38.3051 18.8438 38.3051C18.4076 38.3051 18.0586 37.9506 18.0586 37.5196V18.2798H1.57031V57.054H4.2911C4.7273 57.054 5.07625 57.4086 5.07625 57.8396C5.07625 58.276 4.72184 58.6251 4.2911 58.6251H0.785156C0.348958 58.6251 0 58.2705 0 57.8396V17.8597C0 17.5433 0.130859 17.2542 0.338053 17.0415C0.545247 16.8342 0.834229 16.7033 1.15592 16.7033H18.0586V1.38012C18.0586 1.00372 18.2113 0.654602 18.4621 0.409126V0.403671C18.7129 0.15274 19.0564 0 19.4381 0H47.4365C47.8182 0 48.1617 0.15274 48.4125 0.403671L48.4725 0.469132C48.6851 0.714607 48.8215 1.031 48.8215 1.38012V16.7033H65.8441C66.1603 16.7033 66.4493 16.8342 66.6565 17.0415L66.6619 17.0469C66.8691 17.2542 67 17.5433 67 17.8597V57.8396C67 58.276 66.6456 58.6251 66.2149 58.6251H61.2313C60.7951 58.6251 60.4461 58.2705 60.4461 57.8396C60.4461 57.4031 60.8005 57.054 61.2313 57.054H65.4297V18.2798H48.816V37.2905C48.816 37.7269 48.4616 38.076 48.0308 38.076C47.5946 38.076 47.2457 37.7214 47.2457 37.2905V1.57105H19.6289V37.5196ZM52.9708 37.3887H61.6402C61.7111 37.3887 61.7711 37.4323 61.7711 37.4814V40.0453C61.7711 40.0998 61.7111 40.1435 61.6402 40.1435H52.9708C52.8999 40.1435 52.8399 40.0998 52.8399 40.0453V37.4814C52.8399 37.4323 52.8999 37.3887 52.9708 37.3887ZM5.29435 37.3887H13.9638C14.0347 37.3887 14.0946 37.4323 14.0946 37.4814V40.0453C14.0946 40.0998 14.0347 40.1435 13.9638 40.1435H5.29435C5.22347 40.1435 5.16349 40.0998 5.16349 40.0453V37.4814C5.16349 37.4323 5.22347 37.3887 5.29435 37.3887ZM23.1512 4.6204H43.7288C44.0723 4.6204 44.3559 4.90406 44.3559 5.24773V11.9629C44.3559 12.3065 44.0723 12.5902 43.7288 12.5902H23.1512C22.8077 12.5902 22.5242 12.3065 22.5242 11.9629V5.24773C22.5187 4.90406 22.8022 4.6204 23.1512 4.6204ZM53.1071 57.2886C52.5346 56.1376 51.8094 55.1611 50.9588 54.2447C52.5509 54.8611 54.1812 55.4721 55.3862 56.2303C57.5781 57.605 57.7417 59.2688 57.9216 61.6581H47.0549C47.0549 61.6417 47.0549 61.6199 47.0549 61.6035L46.8531 59.8961L47.6328 60.5725L51.4495 57.2504L53.1071 57.2886ZM14.2201 54.5938L15.5995 58.6523L16.292 56.2412L15.9539 55.8703C15.8013 55.6466 15.7686 55.4503 15.8503 55.2811C16.0357 54.9157 16.4174 54.9866 16.7718 54.9866C17.1426 54.9866 17.606 54.9157 17.7205 55.3848C17.7587 55.543 17.7096 55.7066 17.6006 55.8757L17.2625 56.2467L17.955 58.6578L19.2036 54.5993C19.3835 54.7629 19.6398 54.8993 19.9342 55.0193C19.8307 55.2375 19.738 55.4612 19.6562 55.7012C19.4435 56.3176 19.3072 56.9995 19.2472 57.7577H19.2527C19.2527 57.7741 19.2527 57.7959 19.2472 57.8123L18.9473 61.6635H8.96387C8.3641 61.6199 8.05876 61.3089 8.00968 60.7744L8.21688 58.6469C8.27686 57.8886 8.4895 57.2941 8.83301 56.8358C9.06201 56.5358 9.34554 56.3121 9.65633 56.1376C10.6487 55.5648 13.3204 55.4066 14.2201 54.5938ZM13.5439 48.8388C13.4076 48.8497 13.3095 48.8824 13.2332 48.9261C13.1895 48.9533 13.1623 48.9915 13.1405 49.0352C13.1187 49.0842 13.1077 49.1497 13.1077 49.2206C13.1132 49.4443 13.2332 49.7443 13.4676 50.088L13.4731 50.0934L14.2419 51.3208C14.5472 51.8118 14.8743 52.3082 15.2669 52.6736C15.6431 53.0173 16.1066 53.2519 16.7118 53.2573C17.3716 53.2573 17.8514 53.0173 18.244 52.6518C18.6529 52.27 18.9801 51.7354 19.3018 51.2063L20.1687 49.777C20.3432 49.3788 20.3977 49.1388 20.3432 49.0242C20.3105 48.9533 20.1632 48.937 19.9288 48.9533C19.7761 48.9861 19.6235 48.9588 19.4544 48.8715L19.8852 47.5732C18.2985 47.5514 17.208 47.2786 15.9267 46.4549C15.5068 46.1876 15.376 45.8767 14.9561 45.904C14.6344 45.964 14.3673 46.1113 14.1546 46.3404C13.9474 46.5586 13.7948 46.8586 13.6966 47.2459L13.9529 48.806C13.8166 48.8879 13.6803 48.8933 13.5439 48.8388ZM20.4195 48.4515C20.6049 48.506 20.7412 48.6151 20.8285 48.7788C20.9593 49.0461 20.9102 49.4388 20.6649 49.9952C20.6594 50.0061 20.654 50.0171 20.6485 50.028L19.7707 51.4735C19.4326 52.0354 19.0837 52.5973 18.6202 53.0337C18.1349 53.4865 17.5406 53.7865 16.7227 53.7865C15.9594 53.7865 15.3869 53.4919 14.918 53.061C14.4654 52.6464 14.1219 52.1172 13.8002 51.599L13.0314 50.3716C12.7424 49.9407 12.5952 49.5479 12.5843 49.2261C12.5789 49.0679 12.6061 48.9261 12.6661 48.8006C12.7261 48.6697 12.8242 48.5551 12.9496 48.4733C13.0096 48.4296 13.0805 48.3969 13.1623 48.3696C13.1132 47.715 13.0968 46.9022 13.1296 46.2149C13.1459 46.0458 13.1786 45.8822 13.2222 45.7131C13.4185 45.0094 13.9147 44.442 14.5254 44.0547C14.7435 43.9184 14.9779 43.8038 15.2288 43.7111C16.7118 43.1765 18.6747 43.4656 19.7271 44.6057C20.1578 45.0694 20.425 45.6858 20.4795 46.4986L20.4195 48.4515ZM28.1784 43.0183C28.0039 43.0401 27.873 43.0837 27.7749 43.1437C27.7095 43.1874 27.6659 43.2419 27.6386 43.3019C27.6059 43.3783 27.5895 43.471 27.5895 43.5747C27.6004 43.9074 27.7804 44.3547 28.1239 44.8675L28.1293 44.8784L29.2798 46.7113C29.7378 47.4423 30.2176 48.1842 30.8119 48.7297C31.379 49.2479 32.0605 49.597 32.9657 49.597C33.9471 49.597 34.6668 49.237 35.2448 48.6915C35.8555 48.1187 36.3462 47.3277 36.8206 46.5368L38.1128 44.4093C38.3745 43.8147 38.4509 43.4547 38.3691 43.291C38.3145 43.1819 38.091 43.1546 37.7093 43.1928C37.6821 43.1928 37.6493 43.1928 37.6221 43.1928C37.464 43.1928 37.2949 43.1546 37.1041 43.0674L37.6875 41.1254C35.3157 41.0981 33.6963 40.6835 31.777 39.4561C31.1445 39.0525 30.9591 38.5942 30.3267 38.6379C29.8523 38.7306 29.4488 38.9434 29.1326 39.287C28.8272 39.6143 28.5982 40.0616 28.4456 40.6399L28.8545 42.991C28.62 43.1001 28.391 43.111 28.1784 43.0183ZM29.2471 51.599L31.3081 57.6595L32.3441 54.0647L31.837 53.5083C31.608 53.1755 31.5589 52.8809 31.6843 52.63C31.957 52.0845 32.5295 52.1882 33.0584 52.1882C33.6145 52.1882 34.3015 52.0845 34.476 52.7773C34.536 53.0119 34.4596 53.2519 34.2961 53.5083L33.789 54.0647L34.825 57.6595L36.6897 51.599C38.0365 52.81 41.4988 53.0555 42.9819 53.8792C43.3853 54.1029 43.7507 54.3811 44.0614 54.7356C44.0669 54.6975 44.0778 54.6538 44.0996 54.6211C44.2632 54.2992 44.6012 54.3593 44.9175 54.3593C45.2501 54.3593 45.659 54.2992 45.7626 54.7138C45.7953 54.8502 45.7517 54.9975 45.659 55.1502L45.3591 55.483L45.9753 57.6213L45.1847 58.2487L45.4464 61.6799C45.37 62.4818 44.9175 62.94 44.0233 63.0109H21.9189C21.0247 62.94 20.5722 62.4818 20.4959 61.6799L20.8066 57.6377C20.8939 56.5085 21.2101 55.6139 21.7281 54.932C22.0662 54.4847 22.4915 54.152 22.9604 53.8901C24.438 53.0555 27.9003 52.81 29.2471 51.599ZM38.4945 42.4346C38.7725 42.5164 38.9797 42.6746 39.1051 42.9255C39.3014 43.3238 39.2251 43.9074 38.8598 44.7421C38.8543 44.7584 38.8434 44.7748 38.838 44.7911L37.5239 46.9513C37.0168 47.7914 36.4989 48.626 35.8064 49.2752C35.0812 49.9516 34.1925 50.4044 32.9766 50.3989C31.837 50.3989 30.981 49.9625 30.2776 49.3188C29.6015 48.7024 29.0944 47.9114 28.6037 47.1368L27.4532 45.3039C27.0225 44.6657 26.8044 44.0765 26.788 43.591C26.7826 43.3565 26.8207 43.1437 26.908 42.9583C27.0007 42.7619 27.1424 42.5928 27.3333 42.4673C27.4259 42.4019 27.535 42.3528 27.6495 42.3091C27.5786 41.3272 27.5568 40.1162 27.6004 39.0961C27.6277 38.8452 27.6713 38.5997 27.7422 38.3488C28.0366 37.296 28.7727 36.4504 29.6887 35.8722C30.0104 35.6649 30.3648 35.4958 30.7356 35.3649C32.9439 34.563 35.8773 34.9994 37.4476 36.7014C38.0855 37.3941 38.489 38.3106 38.5763 39.5216L38.4945 42.4346ZM42.4911 52.4391L43.5053 52.4118L44.3504 52.39C43.369 49.3625 43.6961 46.5804 46.0625 44.2129C46.466 45.5112 47.3656 46.5858 48.8978 47.3768C49.6284 47.9223 50.3372 48.5769 51.0243 49.3352C51.1442 48.8333 50.6807 48.2278 50.1191 47.6005C50.6371 47.8569 51.1169 48.2169 51.455 48.9097C51.8476 49.7116 51.8421 50.388 51.7113 51.2608C51.6513 51.6645 51.5531 52.0463 51.4114 52.39H52.8127C54.2903 49.2261 53.3525 44.5293 50.3318 42.5382C49.4049 41.9273 48.7397 41.9491 47.6492 41.9491C46.406 41.9491 45.7681 41.9873 44.6994 42.6964C43.1291 43.7383 42.1585 45.5385 41.7551 48.0369C41.6733 49.2861 41.6187 51.4408 42.4911 52.4391ZM52.9708 31.7864H61.6402C61.7111 31.7864 61.7711 31.83 61.7711 31.8846V34.4484C61.7711 34.503 61.7111 34.5466 61.6402 34.5466H52.9708C52.8999 34.5466 52.8399 34.503 52.8399 34.4484V31.8846C52.8399 31.83 52.8999 31.7864 52.9708 31.7864ZM52.9708 26.1786H61.6402C61.7111 26.1786 61.7711 26.2223 61.7711 26.2768V28.8407C61.7711 28.8952 61.7111 28.9389 61.6402 28.9389H52.9708C52.8999 28.9389 52.8399 28.8952 52.8399 28.8407V26.2768C52.8399 26.2223 52.8999 26.1786 52.9708 26.1786ZM5.29435 31.7864H13.9638C14.0347 31.7864 14.0946 31.83 14.0946 31.8846V34.4484C14.0946 34.503 14.0347 34.5466 13.9638 34.5466H5.29435C5.22347 34.5466 5.16349 34.503 5.16349 34.4484V31.8846C5.16349 31.83 5.22347 31.7864 5.29435 31.7864ZM5.29435 26.1786H13.9638C14.0347 26.1786 14.0946 26.2223 14.0946 26.2768V28.8407C14.0946 28.8952 14.0347 28.9389 13.9638 28.9389H5.29435C5.22347 28.9389 5.16349 28.8952 5.16349 28.8407V26.2768C5.16349 26.2223 5.22347 26.1786 5.29435 26.1786ZM39.0779 26.7732H43.707C43.7779 26.7732 43.8379 26.8332 43.8379 26.9041V31.5355C43.8379 31.6064 43.7779 31.6664 43.707 31.6664H39.0779C39.007 31.6664 38.947 31.6064 38.947 31.5355V26.9041C38.947 26.8332 39.007 26.7732 39.0779 26.7732ZM31.1227 26.7732H35.7519C35.8228 26.7732 35.8827 26.8332 35.8827 26.9041V31.5355C35.8827 31.6064 35.8228 31.6664 35.7519 31.6664H31.1227C31.0518 31.6664 30.9919 31.6064 30.9919 31.5355V26.9041C30.9919 26.8332 31.0518 26.7732 31.1227 26.7732ZM23.1676 26.7732H27.7967C27.8676 26.7732 27.9276 26.8332 27.9276 26.9041V31.5355C27.9276 31.6064 27.8676 31.6664 27.7967 31.6664H23.1676C23.0967 31.6664 23.0367 31.6064 23.0367 31.5355V26.9041C23.0367 26.8332 23.0967 26.7732 23.1676 26.7732ZM39.0779 17.7888H43.707C43.7779 17.7888 43.8379 17.8488 43.8379 17.9197V22.551C43.8379 22.622 43.7779 22.682 43.707 22.682H39.0779C39.007 22.682 38.947 22.622 38.947 22.551V17.9197C38.947 17.8434 39.007 17.7888 39.0779 17.7888ZM31.1227 17.7888H35.7519C35.8228 17.7888 35.8827 17.8488 35.8827 17.9197V22.551C35.8827 22.622 35.8228 22.682 35.7519 22.682H31.1227C31.0518 22.682 30.9919 22.622 30.9919 22.551V17.9197C30.9919 17.8434 31.0518 17.7888 31.1227 17.7888ZM23.1676 17.7888H27.7967C27.8676 17.7888 27.9276 17.8488 27.9276 17.9197V22.551C27.9276 22.622 27.8676 22.682 27.7967 22.682H23.1676C23.0967 22.682 23.0367 22.622 23.0367 22.551V17.9197C23.0367 17.8434 23.0967 17.7888 23.1676 17.7888Z" fill="black"/>
</g>
<defs>
<clipPath id="clip0_168_4837">
<rect width="67" height="63" fill="white"/>
</clipPath>
</defs>
</svg>
