<svg width="17" height="14" viewBox="0 0 17 14" fill="none" xmlns="http://www.w3.org/2000/svg">
<g clip-path="url(#clip0_168_5795)">
<mask id="mask0_168_5795" style="mask-type:luminance" maskUnits="userSpaceOnUse" x="0" y="0" width="17" height="14">
<rect x="0.109375" y="0.599609" width="16" height="12.8" fill="white"/>
</mask>
<g mask="url(#mask0_168_5795)">
<path fill-rule="evenodd" clip-rule="evenodd" d="M5.70938 6.99988C6.59303 6.99988 7.34728 6.74995 7.97212 6.25008C8.59695 5.75021 8.90937 5.14681 8.90938 4.43988C8.90937 3.73296 8.59695 3.12956 7.97212 2.62969C7.34728 2.12982 6.59303 1.87988 5.70938 1.87988C4.82572 1.87988 4.07147 2.12982 3.44663 2.62969C2.82179 3.12956 2.50938 3.73296 2.50938 4.43988C2.50938 5.14681 2.82179 5.75021 3.44663 6.25008C4.07147 6.74995 4.82572 6.99988 5.70938 6.99988ZM8.10938 8.27988C8.11028 8.173 8.12788 8.0679 8.16217 7.96459C8.19647 7.86128 8.24637 7.76305 8.31188 7.66988C8.19188 7.65988 8.07438 7.63988 7.94938 7.63988H7.53188C6.95364 7.85321 6.34614 7.95987 5.70937 7.95987C5.07261 7.95987 4.46511 7.85321 3.88687 7.63988H3.46937C2.54162 7.64005 1.74974 7.90254 1.09372 8.42736C0.437695 8.95217 0.109582 9.58568 0.109375 10.3279V11.1599C0.109375 11.425 0.226532 11.6513 0.460847 11.8387C0.695161 12.0262 0.978004 12.1199 1.30938 12.1199H8.33187C8.25998 12.023 8.20517 11.9203 8.16743 11.8117C8.12969 11.7032 8.11034 11.5926 8.10938 11.4799V8.27988ZM15.3094 7.63988H14.5094V6.03988C14.5094 5.59806 14.3141 5.22093 13.9236 4.90851C13.5331 4.59609 13.0617 4.43988 12.5094 4.43988C11.9571 4.43988 11.4857 4.59609 11.0952 4.90851C10.7046 5.22093 10.5094 5.59806 10.5094 6.03988V7.63988H9.70938C9.48846 7.63988 9.2999 7.70237 9.14369 7.82733C8.98748 7.9523 8.90938 8.10315 8.90938 8.27988V11.4799C8.90937 11.6566 8.98748 11.8075 9.14369 11.9324C9.2999 12.0574 9.48846 12.1199 9.70938 12.1199H15.3094C15.5303 12.1199 15.7189 12.0574 15.8751 11.9324C16.0313 11.8075 16.1094 11.6566 16.1094 11.4799V8.27988C16.1094 8.10315 16.0313 7.9523 15.8751 7.82733C15.7189 7.70237 15.5303 7.63988 15.3094 7.63988ZM12.5094 10.5199C12.2885 10.5199 12.0999 10.4574 11.9437 10.3324C11.7875 10.2075 11.7094 10.0566 11.7094 9.87988C11.7094 9.70315 11.7875 9.5523 11.9437 9.42734C12.0999 9.30237 12.2885 9.23988 12.5094 9.23988C12.7303 9.23988 12.9188 9.30237 13.0751 9.42734C13.2313 9.5523 13.3094 9.70315 13.3094 9.87988C13.3094 10.0566 13.2313 10.2075 13.0751 10.3324C12.9188 10.4574 12.7303 10.5199 12.5094 10.5199ZM13.3094 7.63988H11.7094V6.03988C11.7094 5.86315 11.7875 5.7123 11.9437 5.58733C12.0999 5.46237 12.2885 5.39988 12.5094 5.39988C12.7303 5.39988 12.9188 5.46237 13.0751 5.58733C13.2313 5.7123 13.3094 5.86315 13.3094 6.03988V7.63988Z" fill="#F59E0B"/>
</g>
</g>
<defs>
<clipPath id="clip0_168_5795">
<rect width="16" height="12.8" fill="white" transform="translate(0.109375 0.599609)"/>
</clipPath>
</defs>
</svg>
