<svg width="17" height="16" viewBox="0 0 17 16" fill="none" xmlns="http://www.w3.org/2000/svg">
<g clip-path="url(#clip0_168_5816)">
<mask id="mask0_168_5816" style="mask-type:luminance" maskUnits="userSpaceOnUse" x="0" y="0" width="17" height="16">
<rect x="0.390625" width="16" height="16" fill="white"/>
</mask>
<g mask="url(#mask0_168_5816)">
<path d="M16.171 6.23013L15.4639 5.52304C15.171 5.23013 14.6962 5.23013 14.4033 5.52304L14.2265 5.69982L10.6909 2.16429L10.8677 1.98751C11.1606 1.6946 11.1606 1.21973 10.8677 0.926851L10.1606 0.219727C9.86772 -0.0731797 9.39284 -0.0731797 9.09997 0.219727L5.21088 4.10882C4.91797 4.40173 4.91797 4.8766 5.21088 5.16948L5.91797 5.87657C6.21088 6.16948 6.68575 6.16948 6.97863 5.87657L7.15541 5.69979L8.39284 6.93723L5.86034 9.46973L5.68356 9.29294C5.29303 8.90241 4.65987 8.90241 4.26934 9.29294L0.683594 12.8788C0.293063 13.2693 0.293063 13.9024 0.683594 14.293L2.09781 15.7072C2.48834 16.0977 3.1215 16.0977 3.51203 15.7072L7.09781 12.1214C7.48834 11.7309 7.48834 11.0977 7.09781 10.7072L6.92103 10.5304L9.45353 7.99791L10.691 9.23535L10.5142 9.41213C10.2213 9.70504 10.2213 10.1799 10.5142 10.4728L11.2213 11.1799C11.5142 11.4728 11.9891 11.4728 12.2819 11.1799L16.171 7.29079C16.4639 6.99792 16.4639 6.52304 16.171 6.23013Z" fill="#EF4444"/>
</g>
</g>
<defs>
<clipPath id="clip0_168_5816">
<rect width="16" height="16" fill="white" transform="translate(0.390625)"/>
</clipPath>
</defs>
</svg>
