<svg width="17" height="16" viewBox="0 0 17 16" fill="none" xmlns="http://www.w3.org/2000/svg">
<g clip-path="url(#clip0_168_5783)">
<mask id="mask0_168_5783" style="mask-type:luminance" maskUnits="userSpaceOnUse" x="0" y="0" width="17" height="16">
<rect x="0.03125" width="16" height="16" fill="white"/>
</mask>
<g mask="url(#mask0_168_5783)">
<path fill-rule="evenodd" clip-rule="evenodd" d="M9.03125 4.25V0H2.78125C2.36562 0 2.03125 0.334375 2.03125 0.75V15.25C2.03125 15.6656 2.36562 16 2.78125 16H13.2812C13.6969 16 14.0312 15.6656 14.0312 15.25V5H9.78125C9.36875 5 9.03125 4.6625 9.03125 4.25ZM4.03125 2.25C4.03125 2.11188 4.14313 2 4.28125 2H6.78125C6.91937 2 7.03125 2.11188 7.03125 2.25V2.75C7.03125 2.88812 6.91937 3 6.78125 3H4.28125C4.14313 3 4.03125 2.88812 4.03125 2.75V2.25ZM4.03125 4.25C4.03125 4.11188 4.14313 4 4.28125 4H6.78125C6.91937 4 7.03125 4.11188 7.03125 4.25V4.75C7.03125 4.88812 6.91937 5 6.78125 5H4.28125C4.14313 5 4.03125 4.88812 4.03125 4.75V4.25ZM10.0566 12H11.5312C11.8075 12 12.0312 12.2238 12.0312 12.5C12.0312 12.7762 11.8075 13 11.5312 13H10.0566C9.5425 13 9.07937 12.7144 8.84906 12.2544C8.75688 12.0694 8.59625 12.0506 8.53125 12.0506C8.46625 12.0506 8.30562 12.0691 8.21812 12.2441L7.97844 12.7234C7.93611 12.8081 7.87467 12.8754 7.79411 12.9251C7.71356 12.9749 7.62594 12.9997 7.53125 12.9997C7.51937 12.9997 7.50781 12.9991 7.49563 12.9981C7.29406 12.9841 7.12063 12.8497 7.05719 12.6578L6.53125 11.0809L6.19969 12.0772C6.01562 12.6291 5.50031 13 4.91844 13H4.53125C4.255 13 4.03125 12.7762 4.03125 12.5C4.03125 12.2238 4.255 12 4.53125 12H4.91844C5.06938 12 5.20312 11.9038 5.25094 11.7606L5.81938 10.0531C5.9225 9.74656 6.20813 9.54031 6.53125 9.54031C6.85437 9.54031 7.14 9.74625 7.24281 10.0531L7.67656 11.3544C8.29438 10.8484 9.36563 11.0513 9.73906 11.7969C9.80219 11.9238 9.92531 12 10.0566 12ZM13.8125 3.28125L10.7531 0.21875C10.6125 0.078125 10.4219 0 10.2219 0H10.0312V4H14.0312V3.80938C14.0312 3.6125 13.9531 3.42188 13.8125 3.28125Z" fill="#8B5CF6"/>
</g>
</g>
<defs>
<clipPath id="clip0_168_5783">
<rect width="16" height="16" fill="white" transform="translate(0.03125)"/>
</clipPath>
</defs>
</svg>
