<svg width="17" height="16" viewBox="0 0 17 16" fill="none" xmlns="http://www.w3.org/2000/svg">
<g clip-path="url(#clip0_168_5823)">
<mask id="mask0_168_5823" style="mask-type:luminance" maskUnits="userSpaceOnUse" x="0" y="0" width="17" height="16">
<rect x="0.5625" y="0.888672" width="16" height="14.2222" fill="white"/>
</mask>
<g mask="url(#mask0_168_5823)">
<path fill-rule="evenodd" clip-rule="evenodd" d="M16.3824 12.5432C16.8951 13.3332 16.2516 14.3207 15.2275 14.3207H1.89734C0.871314 14.3207 0.230702 13.3317 0.742425 12.5432L7.40759 2.27093C7.92056 1.48059 9.20537 1.48202 9.71743 2.27093L16.3824 12.5432ZM8.56251 10.4195C7.85681 10.4195 7.28473 10.928 7.28473 11.5553C7.28473 12.1825 7.85681 12.6911 8.56251 12.6911C9.2682 12.6911 9.84029 12.1825 9.84029 11.5553C9.84029 10.928 9.2682 10.4195 8.56251 10.4195ZM7.34937 6.33683L7.55542 9.69486C7.56506 9.852 7.71123 9.97501 7.88826 9.97501H9.23676C9.41378 9.97501 9.55995 9.852 9.56959 9.69486L9.77565 6.33683C9.78606 6.16711 9.63404 6.02439 9.44281 6.02439H7.68217C7.49095 6.02439 7.33895 6.16711 7.34937 6.33683Z" fill="#6366F1"/>
</g>
</g>
<defs>
<clipPath id="clip0_168_5823">
<rect width="16" height="14.2222" fill="white" transform="translate(0.5625 0.888672)"/>
</clipPath>
</defs>
</svg>
