<svg width="20" height="20" viewBox="0 0 20 20" fill="none" xmlns="http://www.w3.org/2000/svg">
<g clip-path="url(#clip0_168_6038)">
<mask id="mask0_168_6038" style="mask-type:luminance" maskUnits="userSpaceOnUse" x="0" y="0" width="20" height="20">
<rect width="20" height="20" fill="white"/>
</mask>
<g mask="url(#mask0_168_6038)">
<path d="M19.7245 7.7884L18.8407 6.90453C18.4745 6.5384 17.8809 6.5384 17.5148 6.90453L17.2939 7.12551L12.8744 2.70609L13.0954 2.48512C13.4615 2.11898 13.4615 1.52539 13.0954 1.1593L12.2115 0.275391C11.8454 -0.0907422 11.2518 -0.0907422 10.8857 0.275391L6.02434 5.13676C5.6582 5.50289 5.6582 6.09648 6.02434 6.46258L6.9082 7.34644C7.27434 7.71258 7.86793 7.71258 8.23402 7.34644L8.455 7.12547L10.0018 8.67227L6.83617 11.8379L6.6152 11.6169C6.12703 11.1287 5.33559 11.1287 4.84742 11.6169L0.365234 16.0992C-0.12293 16.5873 -0.12293 17.3788 0.365234 17.867L2.13301 19.6347C2.62117 20.1229 3.41262 20.1229 3.90078 19.6347L8.38301 15.1525C8.87117 14.6643 8.87117 13.8729 8.38301 13.3847L8.16203 13.1638L11.3277 9.99813L12.8745 11.5449L12.6535 11.7659C12.2873 12.132 12.2873 12.7256 12.6535 13.0917L13.5373 13.9756C13.9035 14.3417 14.4971 14.3417 14.8632 13.9756L19.7245 9.11422C20.0906 8.74813 20.0906 8.15453 19.7245 7.7884Z" fill="#EF4444"/>
</g>
</g>
<defs>
<clipPath id="clip0_168_6038">
<rect width="20" height="20" fill="white"/>
</clipPath>
</defs>
</svg>
