<svg width="20" height="18" viewBox="0 0 20 18" fill="none" xmlns="http://www.w3.org/2000/svg">
<g clip-path="url(#clip0_168_6059)">
<mask id="mask0_168_6059" style="mask-type:luminance" maskUnits="userSpaceOnUse" x="0" y="0" width="20" height="18">
<rect width="20" height="17.7778" fill="white"/>
</mask>
<g mask="url(#mask0_168_6059)">
<path fill-rule="evenodd" clip-rule="evenodd" d="M19.7749 14.5689C20.4158 15.5564 19.6113 16.7908 18.3313 16.7908H1.66855C0.386017 16.7908 -0.414747 15.5545 0.224906 14.5689L8.55637 1.72856C9.19758 0.740627 10.8036 0.742417 11.4437 1.72856L19.7749 14.5689ZM10 11.9142C9.11789 11.9142 8.40279 12.5499 8.40279 13.334C8.40279 14.1181 9.11789 14.7537 10 14.7537C10.8821 14.7537 11.5972 14.1181 11.5972 13.334C11.5972 12.5499 10.8821 11.9142 10 11.9142ZM8.48359 6.81094L8.74116 11.0085C8.75321 11.2049 8.93591 11.3587 9.1572 11.3587H10.8428C11.0641 11.3587 11.2468 11.2049 11.2589 11.0085L11.5164 6.81094C11.5295 6.59878 11.3394 6.42038 11.1004 6.42038H8.89959C8.66057 6.42038 8.47057 6.59878 8.48359 6.81094Z" fill="#16A34A"/>
</g>
</g>
<defs>
<clipPath id="clip0_168_6059">
<rect width="20" height="17.7778" fill="white"/>
</clipPath>
</defs>
</svg>
