<svg width="62" height="50" viewBox="0 0 62 50" fill="none" xmlns="http://www.w3.org/2000/svg">
<path d="M11.4619 18.5536C8.58616 19.1376 5.6398 19.2025 2.77415 16.2974C0.851954 14.3507 -0.106623 11.4457 0.00941501 8.40584C7.3501 16.8415 16.2901 6.40924 5.45313 0.993467C10.7001 -1.46235 15.6494 0.843722 18.2628 5.61559C19.5089 7.87175 20.2455 9.05474 21.194 9.85837C21.3639 10.0073 21.5443 10.1441 21.7338 10.2677C22.1272 9.13395 22.9329 8.1856 23.994 7.6072C24.6031 7.3048 25.2752 7.14754 25.9566 7.14798C27.8687 7.14798 30.2551 8.27606 30.6587 10.2078C30.7445 10.1863 30.8325 10.1746 30.921 10.1728H32.2983C32.3747 10.1732 32.4508 10.1816 32.5254 10.1978C33.2642 10.2621 33.961 10.5653 34.5081 11.0606C35.0553 11.5559 35.4223 12.2158 35.5525 12.9381C35.6866 12.8757 35.833 12.8433 35.9813 12.8433H37.3687C37.4451 12.8436 37.5212 12.852 37.5957 12.8682C39.6138 13.1727 40.3958 14.3657 40.6834 15.923C40.7355 15.9204 40.7877 15.9204 40.8398 15.923H42.2373C42.312 15.9237 42.3864 15.932 42.4593 15.948C44.7498 16.3024 45.6478 17.7849 45.9909 19.5768C50.1783 18.9379 54.7745 16.4322 59.2344 20.9595C61.1515 22.9061 62.1152 25.8112 61.989 28.851C54.6483 20.4154 45.7083 30.8476 56.5453 36.2634C52.04 38.3748 47.7516 36.9622 44.9717 33.4881C44.5937 34.5036 44.1225 35.4827 43.5642 36.4131C43.3321 36.7875 43.1 37.1669 42.7922 37.691V37.7359C42.5569 38.1428 42.2957 38.5346 42.0103 38.9089H42.9739C43.3753 38.9089 43.7603 39.0667 44.0441 39.3475C44.328 39.6283 44.4874 40.0092 44.4874 40.4063V48.5026C44.4874 48.8997 44.328 49.2806 44.0441 49.5614C43.7603 49.8422 43.3753 50 42.9739 50H21.199C20.7976 50 20.4126 49.8422 20.1288 49.5614C19.8449 49.2806 19.6855 48.8997 19.6855 48.5026V40.3814C19.6855 39.9842 19.8449 39.6034 20.1288 39.3225C20.4126 39.0417 20.7976 38.8839 21.199 38.8839H21.7035C21.4395 38.1523 21.2584 37.394 21.1637 36.6228L13.6313 24.4585V24.4286C13.0373 23.6406 12.53 22.7922 12.1178 21.8979C11.7603 21.1397 11.54 20.3254 11.4669 19.492C11.4417 19.1797 11.4417 18.8659 11.4669 18.5536H11.4619ZM21.2747 22.0077C21.2195 21.9774 21.1672 21.9423 21.1183 21.9029C20.4776 21.4037 19.7813 20.8347 19.1709 20.3455L16.5524 18.2191C16.1052 17.8399 15.5722 17.5728 14.9985 17.4405C14.7138 17.3707 14.415 17.3811 14.1358 17.4704C14.022 17.5156 13.9186 17.5831 13.8319 17.6689C13.7452 17.7547 13.677 17.857 13.6313 17.9696C13.4584 18.416 13.3978 18.8974 13.4547 19.3722C13.522 19.9737 13.6926 20.5595 13.9592 21.1042C14.3024 21.8615 14.7305 22.5781 15.2357 23.2406L15.2962 23.3354L22.9497 35.7143C23.0418 35.8505 23.1005 36.006 23.1212 36.1686C23.1833 37.1388 23.4625 38.0833 23.9385 38.9338C24.0505 39.1289 24.2137 39.2904 24.4109 39.4011C24.6081 39.5118 24.8319 39.5677 25.0586 39.5628H37.1013C37.8344 39.5638 38.5505 39.3445 39.1547 38.9338C39.9344 38.3538 40.5752 37.6107 41.0315 36.7576L41.0618 36.7026C41.2837 36.3333 41.5663 35.8591 41.8539 35.3999C43.2156 33.021 44.0385 30.3777 44.2654 27.6531L44.1847 24.2538C44.1822 24.2056 44.1822 24.1573 44.1847 24.1091C44.1847 24.0642 44.1847 23.7397 44.1847 23.3105C44.215 21.0643 44.2503 18.284 42.1666 17.9346H40.8297C40.8297 18.5685 40.7792 19.2074 40.7439 19.8364C40.7086 20.4653 40.6733 20.9295 40.6733 21.4436C40.6733 21.7084 40.567 21.9623 40.3777 22.1495C40.1885 22.3368 39.9319 22.4419 39.6643 22.4419C39.3966 22.4419 39.14 22.3368 38.9508 22.1495C38.7615 21.9623 38.6552 21.7084 38.6552 21.4436C38.6552 20.9445 38.6956 20.3305 38.736 19.7116C38.8722 17.6002 39.0286 15.1693 37.3132 14.8648H35.9863C35.9142 14.8726 35.8415 14.8726 35.7694 14.8648C35.7694 15.6285 35.729 16.4272 35.6786 17.1859C35.6433 17.7449 35.613 18.284 35.613 18.7932C35.613 19.0579 35.5067 19.3118 35.3175 19.4991C35.1282 19.6863 34.8716 19.7915 34.604 19.7915C34.3364 19.7915 34.0797 19.6863 33.8905 19.4991C33.7013 19.3118 33.5949 19.0579 33.5949 18.7932C33.5949 18.294 33.6353 17.685 33.6757 17.0661C33.8068 14.9497 33.9632 12.5238 32.2529 12.2193H30.921C30.8324 12.2185 30.7443 12.2068 30.6587 12.1844V16.0478C30.6587 16.3126 30.5524 16.5665 30.3631 16.7537C30.1739 16.9409 29.9173 17.0461 29.6496 17.0461C29.382 17.0461 29.1254 16.9409 28.9362 16.7537C28.7469 16.5665 28.6406 16.3126 28.6406 16.0478V11.1162C28.6406 9.73857 27.2532 9.11963 25.9566 9.11963C25.5936 9.12104 25.2359 9.20651 24.9123 9.3692C24.0041 9.82343 23.2978 11.1112 23.2978 12.8932V23.8545C23.2978 24.1193 23.1915 24.3732 23.0023 24.5604C22.813 24.7477 22.5564 24.8528 22.2888 24.8528C22.0212 24.8528 21.7645 24.7477 21.5753 24.5604C21.3861 24.3732 21.2797 24.1193 21.2797 23.8545V22.0077H21.2747ZM21.2747 18.4537L20.3262 18.0694C19.8929 17.8962 19.4499 17.7478 18.9993 17.6251L20.4473 18.7932L21.2747 19.467V18.4687V18.4537Z" fill="black"/>
</svg>
