<svg width="17" height="16" viewBox="0 0 17 16" fill="none" xmlns="http://www.w3.org/2000/svg">
<g clip-path="url(#clip0_168_5208)">
<mask id="mask0_168_5208" style="mask-type:luminance" maskUnits="userSpaceOnUse" x="0" y="0" width="17" height="16">
<rect x="0.804688" width="16" height="16" fill="white"/>
</mask>
<g mask="url(#mask0_168_5208)">
<path fill-rule="evenodd" clip-rule="evenodd" d="M16.8047 4.5V13.5C16.8047 14.3281 16.1328 15 15.3047 15H2.30469C1.47656 15 0.804688 14.3281 0.804688 13.5V4.5C0.804688 3.67188 1.47656 3 2.30469 3H5.05469L5.43906 1.97188C5.65781 1.3875 6.21719 1 6.84219 1H10.7641C11.3891 1 11.9484 1.3875 12.1672 1.97188L12.5547 3H15.3047C16.1328 3 16.8047 3.67188 16.8047 4.5ZM12.5547 9C12.5547 6.93125 10.8734 5.25 8.80469 5.25C6.73594 5.25 5.05469 6.93125 5.05469 9C5.05469 11.0688 6.73594 12.75 8.80469 12.75C10.8734 12.75 12.5547 11.0688 12.5547 9ZM11.5547 9C11.5547 10.5156 10.3203 11.75 8.80469 11.75C7.28906 11.75 6.05469 10.5156 6.05469 9C6.05469 7.48438 7.28906 6.25 8.80469 6.25C10.3203 6.25 11.5547 7.48438 11.5547 9Z" fill="white"/>
</g>
</g>
<defs>
<clipPath id="clip0_168_5208">
<rect width="16" height="16" fill="white" transform="translate(0.804688)"/>
</clipPath>
</defs>
</svg>
