<svg width="48" height="48" viewBox="0 0 48 48" fill="none" xmlns="http://www.w3.org/2000/svg">
<g clip-path="url(#clip0_168_5191)">
<mask id="mask0_168_5191" style="mask-type:luminance" maskUnits="userSpaceOnUse" x="0" y="0" width="48" height="48">
<rect width="48" height="48" fill="white"/>
</mask>
<g mask="url(#mask0_168_5191)">
<path fill-rule="evenodd" clip-rule="evenodd" d="M27.75 35.9998H20.25C19.0031 35.9998 18 34.9967 18 33.7498V17.9998H9.77812C8.10938 17.9998 7.275 15.9842 8.45625 14.8029L22.7156 0.53418C23.4188 -0.168945 24.5719 -0.168945 25.275 0.53418L39.5437 14.8029C40.725 15.9842 39.8906 17.9998 38.2219 17.9998H30V33.7498C30 34.9967 28.9969 35.9998 27.75 35.9998ZM48 35.2498V45.7498C48 46.9967 46.9969 47.9998 45.75 47.9998H2.25C1.00312 47.9998 0 46.9967 0 45.7498V35.2498C0 34.0029 1.00312 32.9998 2.25 32.9998H15V33.7498C15 36.6467 17.3531 38.9998 20.25 38.9998H27.75C30.6469 38.9998 33 36.6467 33 33.7498V32.9998H45.75C46.9969 32.9998 48 34.0029 48 35.2498ZM36.375 43.4998C36.375 42.4686 35.5312 41.6248 34.5 41.6248C33.4688 41.6248 32.625 42.4686 32.625 43.4998C32.625 44.5311 33.4688 45.3748 34.5 45.3748C35.5312 45.3748 36.375 44.5311 36.375 43.4998ZM42.375 43.4998C42.375 42.4686 41.5312 41.6248 40.5 41.6248C39.4688 41.6248 38.625 42.4686 38.625 43.4998C38.625 44.5311 39.4688 45.3748 40.5 45.3748C41.5312 45.3748 42.375 44.5311 42.375 43.4998Z" fill="#9CA3AF"/>
</g>
</g>
<defs>
<clipPath id="clip0_168_5191">
<rect width="48" height="48" fill="white"/>
</clipPath>
</defs>
</svg>
